<svg width="351" height="290" viewBox="0 0 351 290" fill="none" xmlns="http://www.w3.org/2000/svg">
<path d="M322.657 226.136C289.152 269.081 237.405 274.999 226.199 276.272C156.242 284.218 82.0345 241.153 85.2792 221.845C85.7282 219.18 87.2726 217.649 87.2726 217.649C90.5771 214.372 95.8451 216.677 101.526 215.843C105.016 215.333 109.979 213.442 115.475 206.816C111.613 207.092 69.7804 209.535 54.6289 183.672C54.1859 182.921 46.6131 169.735 51.037 164.765C57.9573 156.998 85.8419 178.75 107.992 166.626C110.021 165.515 111.541 164.369 112.445 163.643C103.52 164.477 67.8049 166.824 43.3625 142.149C29.3783 128.032 21.8953 107.901 26.4569 103.76C32.3655 98.3939 54.5989 123.387 85.6563 118.645C90.4215 117.919 94.2348 116.67 96.7132 115.728C61.2618 113.297 34.6702 98.454 23.0626 85.1533C10.0363 70.2262 4.98974 52.8441 4.98974 52.8441C4.3911 50.7554 3.996 49.0748 3.73858 47.9584C1.23627 37.0226 -2.22985 10.5114 6.72579 4.62338C16.7171 -1.9489 33.2934 25.8948 74.8329 35.8762C92.3132 40.0777 102.077 38.235 107.758 36.4764C118.031 33.2953 123.46 28.8538 132.302 23.2718C132.302 23.2718 146.442 14.3468 177.2 4.66539C202.391 -3.26336 262.38 -5.05799 305.309 32.275C359.623 79.5054 365.616 171.091 322.669 226.142L322.657 226.136Z" fill="#FF0097"/>
<path d="M221.218 245.433C259.96 245.433 291.366 213.944 291.366 175.101C291.366 136.257 259.96 104.768 221.218 104.768C182.476 104.768 151.069 136.257 151.069 175.101C151.069 213.944 182.476 245.433 221.218 245.433Z" fill="white"/>
<path d="M324.087 257.969L267.146 195.993L252.15 209.843L309.09 271.819L324.087 257.969Z" fill="white"/>
<path d="M153.794 155.72C152.327 160.594 139.277 206.798 169.879 248.026C200.296 288.996 247.774 289.95 252.934 289.962C258.508 289.032 264.835 287.61 271.666 285.425C280.13 282.712 287.344 279.465 293.235 276.356C284.758 277.088 272.857 277.436 258.825 275.599C245.96 273.919 233.305 272.268 219.53 264.682C204.63 256.477 194.938 244.911 188.934 235.53" fill="white"/>
<path d="M223.541 223.633C250.404 223.633 272.18 201.8 272.18 174.866C272.18 147.933 250.404 126.1 223.541 126.1C196.678 126.1 174.901 147.933 174.901 174.866C174.901 201.8 196.678 223.633 223.541 223.633Z" fill="#FF0097"/>
<path d="M272.893 232.655L235.909 264.838C223.691 257.635 211.466 250.439 199.248 243.236C196.435 241.58 193.621 239.923 190.807 238.261C186.21 232.45 177.805 220.212 174.393 202.386C171.16 185.484 173.98 171.685 175.943 164.597C177.35 160.143 179.23 155.348 180.954 155.504C183.235 155.714 183.558 164.525 185.456 174.945C188.048 189.181 190.406 200.735 192.029 208.418C203.948 199.121 215.866 189.824 227.785 180.526L272.893 232.643V232.655Z" fill="#FF0097"/>
<path d="M260.196 224.726C270.613 224.726 279.059 216.258 279.059 205.813C279.059 195.368 270.613 186.901 260.196 186.901C249.778 186.901 241.333 195.368 241.333 205.813C241.333 216.258 249.778 224.726 260.196 224.726Z" fill="white"/>
</svg>
