<svg width="217" height="42" viewBox="0 0 217 42" fill="none" xmlns="http://www.w3.org/2000/svg">
<g clip-path="url(#clip0_196_2193)">
<path d="M45.3456 20.9081C45.2769 28.2256 39.2692 34.0805 32.0325 36.1969C24.1871 38.4908 14.9518 36.8372 9.16429 31.1239C3.89067 25.9182 3.24893 18.3243 7.60612 12.4537C12.2167 6.24154 21.2223 3.63985 28.9066 4.90924C37.3866 6.31119 45.2651 12.3796 45.3456 20.9081C45.374 23.7973 50.1101 23.8041 50.0816 20.9081C49.994 11.5191 42.5702 4.06448 33.4509 1.33473C24.3316 -1.39503 12.6406 0.676439 5.70932 7.62102C-0.809889 14.1522 -2.02706 24.1613 3.51652 31.6316C9.42004 39.5872 20.1046 42.8404 29.9959 41.2677C40.5645 39.5895 49.9822 31.5013 50.0816 20.9081C50.1101 18.0165 45.374 18.0143 45.3456 20.9081Z" fill="#FF0097"/>
<path d="M25.9112 24.8554C30.742 29.569 35.5704 34.2826 40.4012 38.9962C41.0974 39.6747 41.7912 40.3532 42.4874 41.0317C44.6163 43.1077 47.9623 39.9308 45.8358 37.8549C41.005 33.1413 36.1766 28.4277 31.3458 23.7141C30.6496 23.0356 29.9558 22.357 29.2596 21.6785C27.1307 19.6026 23.7847 22.7794 25.9112 24.8554Z" fill="#FF0097"/>
<path d="M104.267 1.55209C101.113 1.9857 98.9793 4.62559 98.9746 7.53283C98.9698 11.1051 98.9651 14.6774 98.9604 18.2496C98.9509 25.3942 98.9414 32.5365 98.9343 39.681C98.9296 42.5725 103.666 42.577 103.67 39.681C103.678 33.2824 103.687 26.8815 103.694 20.4829C103.699 17.3577 103.701 14.2325 103.706 11.1073C103.706 9.82448 103.495 8.06755 103.713 6.98014C103.647 7.31715 103.704 6.97789 103.817 6.81164C103.914 6.67234 103.976 6.5645 104.108 6.43419C104.492 6.06348 104.997 5.96013 105.525 5.88824C106.791 5.71524 107.488 4.18973 107.177 3.12478C106.803 1.83517 105.536 1.38134 104.265 1.55658L104.267 1.55209Z" fill="#FF0097"/>
<path d="M104.897 5.96705H132.248C135.296 5.96705 135.3 1.47363 132.248 1.47363H104.897C101.849 1.47363 101.845 5.96705 104.897 5.96705Z" fill="#FF0097"/>
<path d="M109.676 42C116.266 41.9753 122.854 41.9506 129.444 41.9236C130.379 41.9191 131.312 41.9169 132.248 41.9124C135.296 41.9012 135.3 37.4077 132.248 37.419C125.658 37.4437 119.07 37.4684 112.479 37.4954C111.544 37.4998 110.611 37.5021 109.676 37.5066C106.628 37.5178 106.623 42.0112 109.676 42Z" fill="#FF0097"/>
<path d="M107.028 22.593C113.036 22.593 119.041 22.593 125.049 22.593C125.909 22.593 126.771 22.593 127.63 22.593C130.678 22.593 130.683 18.0996 127.63 18.0996C121.622 18.0996 115.617 18.0996 109.609 18.0996C108.75 18.0996 107.888 18.0996 107.028 18.0996C103.981 18.0996 103.976 22.593 107.028 22.593Z" fill="#FF0097"/>
<path d="M192.164 41.0202C197.362 41.8156 202.905 40.9011 207.353 38.1669C212.318 35.1136 215.726 30.1282 216.709 24.5945C218.158 16.439 214.026 8.35755 206.957 3.68214C200.111 -0.844977 191.082 -1.05392 183.668 2.26447C182.929 2.59474 182.5 3.46646 182.495 4.20338C182.412 16.048 182.332 27.8927 182.249 39.7351C182.23 42.6266 186.966 42.6311 186.985 39.7351C187.068 27.8904 187.149 16.0458 187.231 4.20338L186.059 6.14229C191.383 3.75853 197.793 3.87087 202.948 6.60287C203.625 6.96234 204.26 7.37574 204.902 7.78464C205.458 8.13962 204.532 7.47908 205.008 7.86327C205.269 8.07446 205.536 8.27891 205.794 8.4946C207.035 9.53707 208.274 10.8312 209.051 11.8781C211.456 15.1224 212.61 18.8092 212.231 22.7949C212.217 22.9409 212.198 23.087 212.179 23.233C212.262 22.5882 212.183 23.1881 212.16 23.3049C212.084 23.6913 212.013 24.08 211.921 24.4642C211.698 25.3944 211.409 26.3133 211.042 27.203C210.18 29.2946 208.605 31.4223 206.732 33.0084C204.359 35.0148 201.321 36.2549 198.186 36.6751C197.225 36.8031 195.979 36.8436 194.904 36.8031C194.482 36.7874 194.066 36.7492 193.646 36.7155C192.981 36.6616 194.16 36.7986 193.421 36.6863C192.159 36.4931 190.873 36.9964 190.509 38.2545C190.199 39.3262 190.892 40.8248 192.162 41.018L192.164 41.0202Z" fill="#FF0097"/>
<path d="M145.72 1.46273C142.565 1.89635 140.432 4.53623 140.427 7.44348C140.422 11.0157 140.418 14.588 140.413 18.1603C140.403 25.3048 140.394 32.4471 140.387 39.5917C140.382 42.4832 145.118 42.4877 145.123 39.5917C145.13 33.193 145.139 26.7921 145.146 20.3935C145.151 17.2683 145.154 14.1432 145.158 11.018C145.158 9.73512 144.948 7.97819 145.165 6.89078C145.099 7.22779 145.156 6.88854 145.27 6.72228C145.367 6.58298 145.428 6.47514 145.561 6.34483C145.945 5.97413 146.449 5.87078 146.977 5.79888C148.244 5.62589 148.94 4.10037 148.63 3.03543C148.256 1.74582 146.989 1.29198 145.717 1.46723L145.72 1.46273Z" fill="#FF0097"/>
<path d="M146.35 5.87526H173.7C176.748 5.87526 176.753 1.38184 173.7 1.38184H146.35C143.302 1.38184 143.297 5.87526 146.35 5.87526Z" fill="#FF0097"/>
<path d="M151.353 41.7776C157.865 41.7911 164.377 41.8046 170.887 41.8181C171.825 41.8181 172.763 41.8225 173.698 41.8248C176.746 41.8315 176.75 37.3381 173.698 37.3314C167.186 37.3179 160.674 37.3044 154.164 37.2909C153.226 37.2909 152.289 37.2864 151.353 37.2842C148.306 37.2774 148.301 41.7709 151.353 41.7776Z" fill="#FF0097"/>
<path d="M148.481 22.5007C154.489 22.5007 160.494 22.5007 166.502 22.5007C167.361 22.5007 168.223 22.5007 169.083 22.5007C172.13 22.5007 172.135 18.0073 169.083 18.0073C163.075 18.0073 157.07 18.0073 151.062 18.0073C150.202 18.0073 149.34 18.0073 148.481 18.0073C145.433 18.0073 145.428 22.5007 148.481 22.5007Z" fill="#FF0097"/>
<path d="M61.3133 1.54818C58.1591 1.9818 56.0255 4.62168 56.0207 7.52892C56.016 11.1012 56.0113 14.6735 56.0065 18.2457C55.997 25.3903 55.9876 32.5326 55.9805 39.6771C55.9757 42.5686 60.7118 42.5731 60.7166 39.6771C60.7237 33.2785 60.7331 26.8776 60.7402 20.479C60.745 17.3538 60.7473 14.2286 60.7521 11.1034C60.7521 9.82057 60.5413 8.06364 60.7592 6.97623C60.6929 7.31324 60.7497 6.97399 60.8634 6.80773C60.9605 6.66843 61.022 6.56059 61.1546 6.43028C61.5383 6.05958 62.0427 5.95623 62.5707 5.88433C63.8376 5.71134 64.5338 4.18582 64.2236 3.12088C63.8495 1.83127 62.5826 1.37743 61.3109 1.55267L61.3133 1.54818Z" fill="#FF0097"/>
<path d="M61.9432 5.96059C66.7266 5.96059 71.5125 5.96284 76.2959 5.96509C78.7279 5.96509 81.1598 5.98081 83.5895 5.96509C85.0126 5.9561 86.289 7.1154 87.1557 8.10171C89.3604 10.6068 90.0376 14.1656 89.0525 17.2615C88.586 18.7309 87.7525 20.1036 86.6206 21.2023C86.0759 21.7303 85.5005 22.1684 84.8279 22.5391C84.6693 22.6267 84.5083 22.7031 84.3496 22.7885C83.715 23.1232 84.1767 22.8311 84.3022 22.8177C83.6937 22.8783 83.0495 22.8244 82.4362 22.8266C76.9921 22.8514 71.548 22.8761 66.1039 22.903C63.0562 22.9165 63.0515 27.4099 66.1039 27.3965C71.6261 27.3717 77.1484 27.3448 82.6683 27.3201C84.0252 27.3133 85.1974 27.3605 86.4501 26.8033C87.4588 26.354 88.3729 25.7316 89.2183 25.0464C90.8783 23.7051 92.1476 21.9235 92.9977 20.0295C94.8495 15.909 94.5511 11.2089 92.266 7.29065C91.2122 5.48654 89.7108 3.90935 87.8993 2.77026C87.0871 2.25801 86.1114 1.77497 85.1595 1.55255C83.8192 1.24025 82.1402 1.47167 80.7644 1.47167C74.4891 1.47167 68.2138 1.46717 61.9408 1.46717C58.8932 1.46717 58.8884 5.96059 61.9408 5.96059H61.9432Z" fill="#FF0097"/>
</g>
<defs>
<clipPath id="clip0_196_2193">
<rect width="217" height="42" fill="white"/>
</clipPath>
</defs>
</svg>
